<svg width="183" height="64" viewBox="0 0 183 64" fill="none" xmlns="http://www.w3.org/2000/svg">
<path fill-rule="evenodd" clip-rule="evenodd" d="M30.9389 27.8338C30.9795 27.435 30.9912 27.023 30.9711 26.6023C30.8141 23.3131 28.7731 20.738 26.4123 20.8507C25.1159 20.9126 23.9926 21.7723 23.2693 23.0795C19.849 22.3474 15.8952 22.6903 12.0778 24.2921C9.8609 25.2223 7.91472 26.4828 6.30549 27.9547C4.75312 26.6323 2.87156 26.2109 1.51369 27.0537C-0.339443 28.204 -0.515453 31.2731 1.12056 33.9089C1.32341 34.2357 1.5446 34.5405 1.77999 34.8216C0.991617 37.3387 1.01355 39.9507 2.01898 42.3469C4.74493 48.8435 13.6681 51.2932 21.9494 47.8184C30.2307 44.3436 34.7342 36.2601 32.0082 29.7635C31.7189 29.074 31.3597 28.43 30.9389 27.8338Z" fill="#AE8D6E"/>
<ellipse cx="10.8928" cy="37.6589" rx="1.94568" ry="1.80907" transform="rotate(93.291 10.8928 37.6589)" fill="#1D1B20"/>
<ellipse cx="1.95355" cy="1.76247" rx="1.95355" ry="1.76247" transform="matrix(0.0194153 0.999812 0.999812 -0.0194153 21.908 32.0747)" fill="#1D1B20"/>
<path d="M18.4011 38.6339C17.1672 39.6251 16.034 37.8434 17.1672 37.5144C18.5838 37.1031 19.0185 38.138 18.4011 38.6339C18.4009 38.6403 18.4005 38.6478 18.4001 38.6562C18.398 38.7022 18.3961 38.7536 18.394 38.8098C18.3953 38.7443 18.3983 38.6916 18.4001 38.6562C18.4004 38.6486 18.4008 38.6412 18.4011 38.6339Z" fill="#1D1B20"/>
<path d="M18.4011 38.6339C17.1672 39.6251 16.034 37.8434 17.1672 37.5144C18.5838 37.1031 19.0185 38.138 18.4011 38.6339ZM18.4011 38.6339C18.3891 38.9341 18.1498 41.4899 21.5312 40.1419M18.4011 38.6339C18.3594 39.4958 18.401 42.4723 15.9106 41.924" stroke="#1D1B20" stroke-width="1.11794" stroke-linecap="round" stroke-linejoin="round"/>
<path d="M5.02714 29.5477C5.87427 30.3948 5.40624 31.2447 4.59335 32.0576C3.78047 32.8705 2.93055 33.3385 2.08342 32.4914C1.23629 31.6443 1.20853 30.2985 2.02142 29.4857C2.8343 28.6728 4.18001 28.7005 5.02714 29.5477Z" fill="#F6CADC"/>
<path d="M28.7603 25.8801C28.1554 26.9142 27.2147 26.6768 26.2224 26.0963C25.2301 25.5159 24.562 24.8122 25.1669 23.7782C25.7718 22.7441 27.0666 22.3763 28.0589 22.9568C29.0512 23.5372 29.3652 24.8461 28.7603 25.8801Z" fill="#F6CADC"/>
<path fill-rule="evenodd" clip-rule="evenodd" d="M44.0642 22.7572C43.7099 23.9013 43.1481 25.3605 42.4634 26.9345C43.679 26.8931 44.9053 26.9576 46.1173 27.1377C47.8755 27.6088 49.5079 28.2273 50.9713 28.9792C51.7306 27.2687 52.495 25.7356 53.1507 24.6258C55.9316 19.9189 59.2067 16.3752 62.0537 18.4275C64.4509 20.1556 63.9113 25.2244 61.1304 29.9313C59.9801 32.3029 58.8619 34.2786 57.7907 35.9163C58.5875 38.0218 58.6637 40.4016 57.8272 42.9926C55.9886 49.8543 48.2423 53.6971 39.6351 51.3908C31.0279 49.0845 25.4153 43.3226 27.2539 36.4608C28.0726 33.4053 30.5138 30.8711 33.7351 29.1847C34.1678 26.0183 34.8356 22.8011 35.4783 20.7255C37.0953 15.5031 39.7811 11.3847 42.6718 11.9988C46.1047 12.728 45.6812 17.5347 44.0642 22.7572Z" fill="#E229A0"/>
<ellipse cx="1.94568" cy="1.80907" rx="1.94568" ry="1.80907" transform="matrix(0.0574077 0.998351 0.998351 -0.0574077 46.97 40.4443)" fill="#1D1B20"/>
<ellipse cx="36.0725" cy="38.6177" rx="1.95355" ry="1.76247" transform="rotate(91.1125 36.0725 38.6177)" fill="#1D1B20"/>
<path d="M41.3796 43.2579C42.6135 44.2491 43.7468 42.4675 42.6135 42.1384C41.1969 41.7271 40.7623 42.762 41.3796 43.2579C41.3799 43.2643 41.3802 43.2718 41.3807 43.2802C41.3828 43.3262 41.3847 43.3777 41.3868 43.4338C41.3854 43.3684 41.3825 43.3156 41.3807 43.2802C41.3803 43.2726 41.38 43.2652 41.3796 43.2579Z" fill="#1D1B20"/>
<path d="M41.3796 43.2579C42.6135 44.2491 43.7468 42.4675 42.6135 42.1384C41.1969 41.7271 40.7623 42.762 41.3796 43.2579ZM41.3796 43.2579C41.3916 43.5582 41.631 46.1139 38.2495 44.7659M41.3796 43.2579C41.4214 44.1198 41.3797 47.0963 43.8701 46.548" stroke="#1D1B20" stroke-width="1.11794" stroke-linecap="round" stroke-linejoin="round"/>
<path d="M40.5585 24.052C39.3837 28.6982 39.8396 28.754 37.4382 28.754C35.6586 28.754 35.8644 27.7323 36.5186 23.4403C37.6935 18.7942 38.867 14.947 40.4065 15.0936C42.2348 15.2677 41.7333 19.4058 40.5585 24.052Z" fill="#FFE4FE"/>
<path d="M55.1232 28.1086C53.1608 32.4808 52.4924 32.5072 54.2351 33.6083C56.4034 34.9784 56.5197 33.9076 58.6705 30.1363C60.6329 25.7641 62.3474 22.3795 60.5312 21.2035C58.9897 20.2053 57.0857 23.7364 55.1232 28.1086Z" fill="#FFE4FE"/>
<path d="M81.0703 18.7266C80.7318 19.1172 80.3516 19.4323 79.9297 19.6719C79.513 19.9062 79.0938 20.0234 78.6719 20.0234C78.2083 20.0234 77.7578 19.888 77.3203 19.6172C76.8828 19.3464 76.526 18.9297 76.25 18.3672C75.9792 17.8047 75.8438 17.1875 75.8438 16.5156C75.8438 15.6875 76.0547 14.8594 76.4766 14.0312C76.9036 13.1979 77.4323 12.5729 78.0625 12.1562C78.6927 11.7396 79.3047 11.5312 79.8984 11.5312C80.3516 11.5312 80.7839 11.651 81.1953 11.8906C81.6068 12.125 81.9609 12.4844 82.2578 12.9688L82.5234 11.7578H83.9219L82.7969 17C82.6406 17.7292 82.5625 18.1328 82.5625 18.2109C82.5625 18.3516 82.6146 18.474 82.7188 18.5781C82.8281 18.6771 82.9583 18.7266 83.1094 18.7266C83.3854 18.7266 83.7474 18.5677 84.1953 18.25C84.7891 17.8333 85.2578 17.276 85.6016 16.5781C85.9505 15.875 86.125 15.151 86.125 14.4062C86.125 13.5365 85.901 12.724 85.4531 11.9688C85.0104 11.2135 84.3464 10.6094 83.4609 10.1562C82.5807 9.70312 81.6068 9.47656 80.5391 9.47656C79.3203 9.47656 78.2057 9.76302 77.1953 10.3359C76.1901 10.9036 75.4089 11.7214 74.8516 12.7891C74.2995 13.8516 74.0234 14.9922 74.0234 16.2109C74.0234 17.487 74.2995 18.5859 74.8516 19.5078C75.4089 20.4297 76.2109 21.1094 77.2578 21.5469C78.3099 21.9896 79.474 22.2109 80.75 22.2109C82.1146 22.2109 83.2578 21.9818 84.1797 21.5234C85.1016 21.0651 85.7917 20.5078 86.25 19.8516H87.6641C87.3984 20.3984 86.9427 20.9557 86.2969 21.5234C85.651 22.0911 84.8828 22.5391 83.9922 22.8672C83.1016 23.2005 82.0286 23.3672 80.7734 23.3672C79.6172 23.3672 78.5495 23.2188 77.5703 22.9219C76.5964 22.625 75.7656 22.1771 75.0781 21.5781C74.3906 20.9844 73.8724 20.2995 73.5234 19.5234C73.0859 18.5391 72.8672 17.4766 72.8672 16.3359C72.8672 15.0651 73.1276 13.8542 73.6484 12.7031C74.2839 11.2917 75.1849 10.2109 76.3516 9.46094C77.5234 8.71094 78.9427 8.33594 80.6094 8.33594C81.901 8.33594 83.0599 8.60156 84.0859 9.13281C85.1172 9.65885 85.9297 10.4453 86.5234 11.4922C87.0286 12.3932 87.2812 13.3724 87.2812 14.4297C87.2812 15.9401 86.75 17.2812 85.6875 18.4531C84.7396 19.5052 83.7031 20.0312 82.5781 20.0312C82.2188 20.0312 81.9271 19.9766 81.7031 19.8672C81.4844 19.7578 81.3229 19.6016 81.2188 19.3984C81.151 19.2682 81.1016 19.0443 81.0703 18.7266ZM77.2891 16.6094C77.2891 17.3229 77.4583 17.8776 77.7969 18.2734C78.1354 18.6693 78.5234 18.8672 78.9609 18.8672C79.2526 18.8672 79.5599 18.7812 79.8828 18.6094C80.2057 18.4323 80.513 18.1719 80.8047 17.8281C81.1016 17.4844 81.3438 17.0495 81.5312 16.5234C81.7188 15.9922 81.8125 15.4609 81.8125 14.9297C81.8125 14.2214 81.6354 13.6719 81.2812 13.2812C80.9323 12.8906 80.5052 12.6953 80 12.6953C79.6667 12.6953 79.3516 12.7812 79.0547 12.9531C78.763 13.1198 78.4792 13.3906 78.2031 13.7656C77.9271 14.1406 77.7057 14.5964 77.5391 15.1328C77.3724 15.6693 77.2891 16.1615 77.2891 16.6094Z" fill="#1D1B20"/>
<path d="M92.3984 20V9.89844H88.625V8.54688H97.7031V9.89844H93.9141V20H92.3984Z" fill="#1D1B20"/>
<path d="M98.5078 14.4219C98.5078 12.5208 99.0182 11.0339 100.039 9.96094C101.06 8.88281 102.378 8.34375 103.992 8.34375C105.049 8.34375 106.003 8.59635 106.852 9.10156C107.701 9.60677 108.346 10.3125 108.789 11.2188C109.237 12.1198 109.461 13.1432 109.461 14.2891C109.461 15.4505 109.227 16.4896 108.758 17.4062C108.289 18.3229 107.625 19.0182 106.766 19.4922C105.906 19.9609 104.979 20.1953 103.984 20.1953C102.906 20.1953 101.943 19.9349 101.094 19.4141C100.245 18.8932 99.6016 18.1823 99.1641 17.2812C98.7266 16.3802 98.5078 15.4271 98.5078 14.4219ZM100.07 14.4453C100.07 15.8255 100.44 16.9141 101.18 17.7109C101.924 18.5026 102.857 18.8984 103.977 18.8984C105.117 18.8984 106.055 18.4974 106.789 17.6953C107.529 16.8932 107.898 15.7552 107.898 14.2812C107.898 13.349 107.74 12.5365 107.422 11.8438C107.109 11.1458 106.648 10.6068 106.039 10.2266C105.435 9.84115 104.755 9.64844 104 9.64844C102.927 9.64844 102.003 10.0182 101.227 10.7578C100.456 11.4922 100.07 12.7214 100.07 14.4453Z" fill="#1D1B20"/>
<path d="M114.648 20V15.1484L110.234 8.54688H112.078L114.336 12C114.753 12.6458 115.141 13.2917 115.5 13.9375C115.844 13.3385 116.26 12.6641 116.75 11.9141L118.969 8.54688H120.734L116.164 15.1484V20H114.648Z" fill="#1D1B20"/>
<path d="M121.578 16.3203L123.008 16.1953C123.076 16.7682 123.232 17.2396 123.477 17.6094C123.727 17.974 124.112 18.2708 124.633 18.5C125.154 18.724 125.74 18.8359 126.391 18.8359C126.969 18.8359 127.479 18.75 127.922 18.5781C128.365 18.4062 128.693 18.1719 128.906 17.875C129.125 17.5729 129.234 17.2448 129.234 16.8906C129.234 16.5312 129.13 16.2188 128.922 15.9531C128.714 15.6823 128.37 15.4557 127.891 15.2734C127.583 15.1536 126.904 14.9688 125.852 14.7188C124.799 14.4635 124.062 14.224 123.641 14C123.094 13.7135 122.685 13.3594 122.414 12.9375C122.148 12.5104 122.016 12.0339 122.016 11.5078C122.016 10.9297 122.18 10.3906 122.508 9.89062C122.836 9.38542 123.315 9.0026 123.945 8.74219C124.576 8.48177 125.276 8.35156 126.047 8.35156C126.896 8.35156 127.643 8.48958 128.289 8.76562C128.94 9.03646 129.44 9.4375 129.789 9.96875C130.138 10.5 130.326 11.1016 130.352 11.7734L128.898 11.8828C128.82 11.1589 128.555 10.612 128.102 10.2422C127.654 9.8724 126.99 9.6875 126.109 9.6875C125.193 9.6875 124.523 9.85677 124.102 10.1953C123.685 10.5286 123.477 10.9323 123.477 11.4062C123.477 11.8177 123.625 12.1562 123.922 12.4219C124.214 12.6875 124.974 12.9609 126.203 13.2422C127.438 13.5182 128.284 13.7604 128.742 13.9688C129.409 14.276 129.901 14.6667 130.219 15.1406C130.536 15.6094 130.695 16.151 130.695 16.7656C130.695 17.375 130.521 17.9505 130.172 18.4922C129.823 19.0286 129.32 19.4479 128.664 19.75C128.013 20.0469 127.279 20.1953 126.461 20.1953C125.424 20.1953 124.555 20.0443 123.852 19.7422C123.154 19.4401 122.604 18.987 122.203 18.3828C121.807 17.7734 121.599 17.0859 121.578 16.3203Z" fill="#1D1B20"/>
<path d="M131.289 23.1797V22.1641H140.609V23.1797H131.289Z" fill="#1D1B20"/>
<path d="M141.609 20V9.3328V8.54688H143.125V18.6484H148.766V20H141.609Z" fill="#1D1B20"/>
<path d="M149.32 20L153.719 8.54688H155.352L160.039 20H158.312L156.977 16.5312H152.188L150.93 20H149.32ZM152.625 15.2969H156.508L155.312 12.125C154.948 11.1615 154.677 10.3698 154.5 9.75C154.354 10.4844 154.148 11.2135 153.883 11.9375L152.625 15.2969Z" fill="#1D1B20"/>
<path d="M161.234 20V8.54688H162.789L168.805 17.5391V8.54688H170.258V20H168.703L162.688 11V20H161.234Z" fill="#1D1B20"/>
<path d="M171.555 20L175.953 8.54688H177.586L182.273 20H180.547L179.211 16.5312H174.422L173.164 20H171.555ZM174.859 15.2969H178.742L177.547 12.125C177.182 11.1615 176.911 10.3698 176.734 9.75C176.589 10.4844 176.383 11.2135 176.117 11.9375L174.859 15.2969Z" fill="#1D1B20"/>
<path fill-rule="evenodd" clip-rule="evenodd" d="M152.5 27.6694C152.752 28.8147 152.502 30.8463 152.502 30.8463C152.392 32.405 152.146 34.4206 151.982 35.3343C151.763 36.6243 151.791 38.0486 152.119 41.4886C152.365 43.9341 152.693 46.1647 152.857 46.4334C153.022 46.6753 153.076 47.1053 152.967 47.374C152.803 47.804 152.721 47.8309 152.392 47.4815C152.037 47.1322 151.709 45.251 151.271 40.9242C151.107 39.2042 151.052 39.1236 150.806 39.8492C150.313 41.3004 149.083 42.1336 148.563 41.3273C148.481 41.193 148.125 41.3811 147.77 41.7573C147.004 42.671 146.265 42.4829 145.526 41.1929L144.952 40.2255L144.46 41.3273C143.913 42.5098 143.092 42.7785 142.736 41.8379L142.517 41.3004L142.025 41.8379C141.341 42.5904 140.657 42.5367 140.001 41.7304L139.454 41.0586L139.262 42.0798C139.18 42.6173 138.989 43.2623 138.879 43.4504C138.524 43.9879 137.785 43.6116 137.375 42.671L137.019 41.8379L136.527 43.6654C135.98 45.7347 135.679 46.2184 135.296 45.6272C134.722 44.7404 135.077 39.7149 135.706 39.7149C135.98 39.7149 136.035 40.1448 135.952 41.3811L135.816 43.0741L136.308 41.7573C136.992 40.0105 137.402 39.9299 137.785 41.4617C138.141 42.886 138.332 42.8323 138.715 41.1123C139.071 39.4999 139.755 39.2849 140.22 40.6286C140.739 42.2142 141.533 41.7842 142.9 39.1505C143.53 37.8874 143.748 37.6993 144.432 37.6993C144.87 37.6993 145.28 37.8605 145.362 38.0218C145.417 38.2368 145.198 38.3711 144.761 38.3711C143.913 38.3711 143.502 39.0699 143.53 40.4405L143.557 41.4617L144.213 40.0373C144.569 39.2849 144.925 38.6399 145.007 38.6399C145.089 38.6399 145.444 39.3117 145.827 40.118C146.183 40.9242 146.648 41.5961 146.867 41.5961C147.277 41.5961 147.824 40.4405 148.426 38.3174C148.809 36.8662 149.548 36.0868 150.286 36.2749C150.778 36.4093 150.833 36.1674 150.97 32.2169C151.107 28.5082 150 27.1698 150.56 26.3314C151.16 25.4327 152.248 26.5241 152.5 27.6694ZM149.247 40.6555C148.836 40.4136 148.918 39.043 149.383 37.9412C149.848 36.8124 150.505 36.8662 150.45 37.9949C150.396 39.0699 149.602 40.8705 149.247 40.6555Z" fill="black"/>
<path fill-rule="evenodd" clip-rule="evenodd" d="M129.798 38.0755C130.017 36.1943 130.099 34.3669 129.989 33.9637C129.798 33.1575 129.169 33.05 128.84 33.7219C128.731 33.9906 128.594 36.0062 128.512 38.183C128.403 41.9186 128.375 42.1335 127.883 41.9992C127.172 41.7573 126.132 42.9398 125.777 44.3641C125.613 44.9822 125.284 45.7347 125.038 46.0303C124.628 46.5678 124.6 46.5409 123.78 45.5466C122.904 44.5254 122.248 44.3104 121.674 44.8747C121.427 45.1166 121.345 45.036 121.345 44.4716C121.345 44.0148 121.209 43.746 120.935 43.746C120.634 43.746 120.525 44.0685 120.525 44.9285C120.525 46.8097 119.513 49.094 118.829 48.6909C118.719 48.6103 118.282 47.9384 117.899 47.1859C117.516 46.4603 117.133 45.9228 117.051 46.0035C116.969 46.0841 116.613 46.7291 116.285 47.4278L115.656 48.7178L115.628 47.7772C115.601 46.3528 116.148 45.466 117.051 45.5735C117.953 45.6541 118.035 45.1703 117.187 44.8479C116.339 44.5254 115.574 45.036 115.163 46.1916C114.124 48.9865 115.491 51.1096 116.64 48.5028L117.16 47.374L117.598 48.234C117.871 48.7178 118.336 49.2553 118.665 49.4165C119.184 49.6852 119.348 49.6315 119.868 49.0403C120.221 48.6484 120.376 48.4763 120.459 48.505C120.523 48.5275 120.543 48.6731 120.579 48.9328C120.716 49.9809 121.209 49.4702 121.537 47.8578C121.701 46.9978 121.974 46.0035 122.111 45.6541C122.33 45.036 122.357 45.036 123.233 46.1378C124.135 47.2665 124.792 47.5084 125.394 46.9172C125.64 46.6753 125.831 46.7022 126.214 47.0516C126.953 47.6965 127.5 47.4009 128.102 46.0035L128.649 44.7941L128.977 48.0997C129.415 52.3995 129.606 53.2595 130.181 53.367C130.482 53.4208 130.646 53.2864 130.646 52.937C130.646 52.6414 130.536 52.3458 130.4 52.2921C130.044 52.1846 129.497 47.2666 129.442 44.0416C129.442 42.6173 129.579 39.9299 129.798 38.0755ZM154.335 36.0599C154.717 35.2537 154.991 34.4206 154.882 34.2056C154.635 33.5875 153.952 33.7219 153.432 34.5281C152.721 35.6031 152.721 39.4192 153.459 40.2255C154.225 41.0317 155.1 40.9242 155.976 39.903C156.742 39.0161 158 36.6243 158 36.0062C158 35.2537 157.398 35.7643 156.878 36.9468C156.14 38.6668 155.073 39.9836 154.471 39.9836C153.404 39.9836 153.322 38.0755 154.335 36.0599ZM111.334 45.5466C111.306 45.5197 111.142 43.316 110.951 40.6555C110.622 35.2268 110.103 33.6681 110.157 38.1024C110.157 39.6611 110.267 42.0798 110.376 43.4773C110.513 45.2241 110.486 46.0841 110.294 46.2453C109.364 46.8903 105.124 49.3896 105.07 49.3359C105.015 49.2821 104.905 47.374 104.796 45.0897C104.55 39.8492 104.413 39.0699 103.647 38.9624C102.936 38.8549 102.115 39.8492 101.431 41.6767C100.255 44.7672 100.501 46.8366 102.006 46.8366C102.909 46.8366 103.018 46.3528 102.143 46.1647C101.267 45.9497 101.213 44.9285 101.896 42.7248C102.471 40.8167 103.182 39.6074 103.565 39.8492C103.674 39.9299 103.866 41.8917 103.975 44.2029C104.057 46.5409 104.194 48.7446 104.276 49.1209C104.386 49.739 104.085 50.0077 101.431 51.7277C98.5865 53.582 97 54.872 97 55.302C97 55.7589 97.848 55.8126 98.0121 55.3557C98.1215 55.1139 98.5045 54.657 98.8874 54.3614C99.8722 53.6089 104.194 50.7333 104.276 50.814C104.304 50.8408 104.468 53.152 104.659 55.9738C104.851 58.7688 105.097 61.3487 105.234 61.6981C105.562 62.5581 106.109 62.1549 105.89 61.1875C105.753 60.5694 104.96 50.384 105.042 50.3034C105.206 50.1421 110.513 46.9978 110.568 47.0247C110.595 47.0784 110.759 48.9596 110.923 51.244C111.087 53.5283 111.306 55.4632 111.361 55.5438C111.826 56.0007 111.908 54.657 111.662 50.8946L111.361 46.6216L112.182 46.0303C112.647 45.7078 113.413 45.2241 113.905 44.9285C114.37 44.6597 114.78 44.2835 114.78 44.0954C114.78 43.6116 114.726 43.6385 112.948 44.6866C112.1 45.1972 111.361 45.5735 111.334 45.5466ZM126.761 46.5409C126.269 46.2453 126.652 43.4504 127.254 43.0204C127.719 42.6979 127.801 42.6979 127.992 43.1548C128.266 43.7729 127.172 46.7828 126.761 46.5409Z" fill="black"/>
</svg>
